<mxfile host="app.diagrams.net" modified="2020-11-29T01:07:45.755Z" agent="5.0 (Windows NT 10.0; WOW64) AppleWebKit/537.36 (KHTML, like Gecko) Chrome/80.0.3987.163 Safari/537.36" etag="_oHkqYdkejFAQWvbv5oC" version="13.10.4" type="github">
  <diagram id="Xuk7HZoTZ2i2MxjXUq7G" name="Page-1">
    <mxGraphModel dx="1422" dy="1931" grid="1" gridSize="10" guides="1" tooltips="1" connect="1" arrows="1" fold="1" page="1" pageScale="1" pageWidth="827" pageHeight="1169" math="0" shadow="0">
      <root>
        <mxCell id="0" />
        <mxCell id="1" parent="0" />
        <mxCell id="PcNx7nIADKClGpqnJLgY-1" value="" style="whiteSpace=wrap;html=1;aspect=fixed;strokeWidth=4;" vertex="1" parent="1">
          <mxGeometry x="40" y="40" width="130" height="130" as="geometry" />
        </mxCell>
        <mxCell id="PcNx7nIADKClGpqnJLgY-2" value="Vertical Flow Layout" style="swimlane;html=1;startSize=20;horizontal=1;childLayout=flowLayout;flowOrientation=north;resizable=0;interRankCellSpacing=50;containerType=tree;strokeWidth=4;" vertex="1" parent="1">
          <mxGeometry x="390" y="-20" width="270" height="280" as="geometry" />
        </mxCell>
        <mxCell id="PcNx7nIADKClGpqnJLgY-3" value="Start" style="whiteSpace=wrap;html=1;" vertex="1" parent="PcNx7nIADKClGpqnJLgY-2">
          <mxGeometry x="85" y="40" width="100" height="40" as="geometry" />
        </mxCell>
        <mxCell id="PcNx7nIADKClGpqnJLgY-4" value="Task" style="whiteSpace=wrap;html=1;" vertex="1" parent="PcNx7nIADKClGpqnJLgY-2">
          <mxGeometry x="20" y="130" width="100" height="40" as="geometry" />
        </mxCell>
        <mxCell id="PcNx7nIADKClGpqnJLgY-5" value="" style="html=1;curved=1;noEdgeStyle=1;orthogonal=1;" edge="1" parent="PcNx7nIADKClGpqnJLgY-2" source="PcNx7nIADKClGpqnJLgY-3" target="PcNx7nIADKClGpqnJLgY-4">
          <mxGeometry relative="1" as="geometry">
            <Array as="points">
              <mxPoint x="112.5" y="92" />
              <mxPoint x="70" y="118" />
            </Array>
          </mxGeometry>
        </mxCell>
        <mxCell id="PcNx7nIADKClGpqnJLgY-6" value="Task" style="whiteSpace=wrap;html=1;" vertex="1" parent="PcNx7nIADKClGpqnJLgY-2">
          <mxGeometry x="150" y="130" width="100" height="40" as="geometry" />
        </mxCell>
        <mxCell id="PcNx7nIADKClGpqnJLgY-7" value="" style="html=1;curved=1;noEdgeStyle=1;orthogonal=1;" edge="1" parent="PcNx7nIADKClGpqnJLgY-2" source="PcNx7nIADKClGpqnJLgY-3" target="PcNx7nIADKClGpqnJLgY-6">
          <mxGeometry relative="1" as="geometry">
            <Array as="points">
              <mxPoint x="157.5" y="92" />
              <mxPoint x="200" y="118" />
            </Array>
          </mxGeometry>
        </mxCell>
        <mxCell id="PcNx7nIADKClGpqnJLgY-8" value="End" style="whiteSpace=wrap;html=1;" vertex="1" parent="PcNx7nIADKClGpqnJLgY-2">
          <mxGeometry x="85" y="220" width="100" height="40" as="geometry" />
        </mxCell>
        <mxCell id="PcNx7nIADKClGpqnJLgY-9" value="" style="html=1;curved=1;noEdgeStyle=1;orthogonal=1;" edge="1" parent="PcNx7nIADKClGpqnJLgY-2" source="PcNx7nIADKClGpqnJLgY-4" target="PcNx7nIADKClGpqnJLgY-8">
          <mxGeometry relative="1" as="geometry">
            <Array as="points">
              <mxPoint x="70" y="182" />
              <mxPoint x="112.5" y="208" />
            </Array>
          </mxGeometry>
        </mxCell>
        <mxCell id="PcNx7nIADKClGpqnJLgY-10" value="" style="html=1;curved=1;noEdgeStyle=1;orthogonal=1;" edge="1" parent="PcNx7nIADKClGpqnJLgY-2" source="PcNx7nIADKClGpqnJLgY-6" target="PcNx7nIADKClGpqnJLgY-8">
          <mxGeometry relative="1" as="geometry">
            <Array as="points">
              <mxPoint x="200" y="182" />
              <mxPoint x="157.5" y="208" />
            </Array>
          </mxGeometry>
        </mxCell>
        <mxCell id="PcNx7nIADKClGpqnJLgY-11" value="" style="shape=table;html=1;whiteSpace=wrap;startSize=0;container=1;collapsible=0;childLayout=tableLayout;" vertex="1" parent="1">
          <mxGeometry x="590" y="410" width="30" height="150" as="geometry" />
        </mxCell>
        <mxCell id="PcNx7nIADKClGpqnJLgY-12" value="" style="shape=partialRectangle;html=1;whiteSpace=wrap;collapsible=0;dropTarget=0;pointerEvents=0;fillColor=none;top=0;left=0;bottom=0;right=0;points=[[0,0.5],[1,0.5]];portConstraint=eastwest;" vertex="1" parent="PcNx7nIADKClGpqnJLgY-11">
          <mxGeometry width="30" height="16" as="geometry" />
        </mxCell>
        <mxCell id="PcNx7nIADKClGpqnJLgY-13" value="" style="shape=partialRectangle;html=1;whiteSpace=wrap;connectable=0;overflow=hidden;fillColor=none;top=0;left=0;bottom=0;right=0;" vertex="1" parent="PcNx7nIADKClGpqnJLgY-12">
          <mxGeometry width="4" height="16" as="geometry" />
        </mxCell>
        <mxCell id="PcNx7nIADKClGpqnJLgY-14" value="" style="shape=partialRectangle;html=1;whiteSpace=wrap;connectable=0;overflow=hidden;fillColor=none;top=0;left=0;bottom=0;right=0;" vertex="1" parent="PcNx7nIADKClGpqnJLgY-12">
          <mxGeometry x="4" width="5" height="16" as="geometry" />
        </mxCell>
        <mxCell id="PcNx7nIADKClGpqnJLgY-15" value="" style="shape=partialRectangle;html=1;whiteSpace=wrap;connectable=0;overflow=hidden;fillColor=none;top=0;left=0;bottom=0;right=0;" vertex="1" parent="PcNx7nIADKClGpqnJLgY-12">
          <mxGeometry x="9" width="7" height="16" as="geometry" />
        </mxCell>
        <mxCell id="PcNx7nIADKClGpqnJLgY-16" value="" style="shape=partialRectangle;html=1;whiteSpace=wrap;connectable=0;overflow=hidden;fillColor=none;top=0;left=0;bottom=0;right=0;" vertex="1" parent="PcNx7nIADKClGpqnJLgY-12">
          <mxGeometry x="16" width="1" height="16" as="geometry" />
        </mxCell>
        <mxCell id="PcNx7nIADKClGpqnJLgY-17" value="" style="shape=partialRectangle;html=1;whiteSpace=wrap;connectable=0;overflow=hidden;fillColor=none;top=0;left=0;bottom=0;right=0;" vertex="1" parent="PcNx7nIADKClGpqnJLgY-12">
          <mxGeometry x="17" width="4" height="16" as="geometry" />
        </mxCell>
        <mxCell id="PcNx7nIADKClGpqnJLgY-18" value="" style="shape=partialRectangle;html=1;whiteSpace=wrap;connectable=0;overflow=hidden;fillColor=none;top=0;left=0;bottom=0;right=0;" vertex="1" parent="PcNx7nIADKClGpqnJLgY-12">
          <mxGeometry x="21" width="5" height="16" as="geometry" />
        </mxCell>
        <mxCell id="PcNx7nIADKClGpqnJLgY-19" value="" style="shape=partialRectangle;html=1;whiteSpace=wrap;connectable=0;overflow=hidden;fillColor=none;top=0;left=0;bottom=0;right=0;" vertex="1" parent="PcNx7nIADKClGpqnJLgY-12">
          <mxGeometry x="26" width="4" height="16" as="geometry" />
        </mxCell>
        <mxCell id="PcNx7nIADKClGpqnJLgY-20" value="" style="shape=partialRectangle;html=1;whiteSpace=wrap;collapsible=0;dropTarget=0;pointerEvents=0;fillColor=none;top=0;left=0;bottom=0;right=0;points=[[0,0.5],[1,0.5]];portConstraint=eastwest;" vertex="1" parent="PcNx7nIADKClGpqnJLgY-11">
          <mxGeometry y="16" width="30" height="16" as="geometry" />
        </mxCell>
        <mxCell id="PcNx7nIADKClGpqnJLgY-21" value="" style="shape=partialRectangle;html=1;whiteSpace=wrap;connectable=0;overflow=hidden;fillColor=none;top=0;left=0;bottom=0;right=0;" vertex="1" parent="PcNx7nIADKClGpqnJLgY-20">
          <mxGeometry width="4" height="16" as="geometry" />
        </mxCell>
        <mxCell id="PcNx7nIADKClGpqnJLgY-22" value="" style="shape=partialRectangle;html=1;whiteSpace=wrap;connectable=0;overflow=hidden;fillColor=none;top=0;left=0;bottom=0;right=0;" vertex="1" parent="PcNx7nIADKClGpqnJLgY-20">
          <mxGeometry x="4" width="5" height="16" as="geometry" />
        </mxCell>
        <mxCell id="PcNx7nIADKClGpqnJLgY-23" value="" style="shape=partialRectangle;html=1;whiteSpace=wrap;connectable=0;overflow=hidden;fillColor=none;top=0;left=0;bottom=0;right=0;" vertex="1" parent="PcNx7nIADKClGpqnJLgY-20">
          <mxGeometry x="9" width="7" height="16" as="geometry" />
        </mxCell>
        <mxCell id="PcNx7nIADKClGpqnJLgY-24" value="" style="shape=partialRectangle;html=1;whiteSpace=wrap;connectable=0;overflow=hidden;fillColor=none;top=0;left=0;bottom=0;right=0;" vertex="1" parent="PcNx7nIADKClGpqnJLgY-20">
          <mxGeometry x="16" width="1" height="16" as="geometry" />
        </mxCell>
        <mxCell id="PcNx7nIADKClGpqnJLgY-25" value="" style="shape=partialRectangle;html=1;whiteSpace=wrap;connectable=0;overflow=hidden;fillColor=none;top=0;left=0;bottom=0;right=0;" vertex="1" parent="PcNx7nIADKClGpqnJLgY-20">
          <mxGeometry x="17" width="4" height="16" as="geometry" />
        </mxCell>
        <mxCell id="PcNx7nIADKClGpqnJLgY-26" value="" style="shape=partialRectangle;html=1;whiteSpace=wrap;connectable=0;overflow=hidden;fillColor=none;top=0;left=0;bottom=0;right=0;" vertex="1" parent="PcNx7nIADKClGpqnJLgY-20">
          <mxGeometry x="21" width="5" height="16" as="geometry" />
        </mxCell>
        <mxCell id="PcNx7nIADKClGpqnJLgY-27" value="" style="shape=partialRectangle;html=1;whiteSpace=wrap;connectable=0;overflow=hidden;fillColor=none;top=0;left=0;bottom=0;right=0;" vertex="1" parent="PcNx7nIADKClGpqnJLgY-20">
          <mxGeometry x="26" width="4" height="16" as="geometry" />
        </mxCell>
        <mxCell id="PcNx7nIADKClGpqnJLgY-28" value="" style="shape=partialRectangle;html=1;whiteSpace=wrap;collapsible=0;dropTarget=0;pointerEvents=0;fillColor=none;top=0;left=0;bottom=0;right=0;points=[[0,0.5],[1,0.5]];portConstraint=eastwest;" vertex="1" parent="PcNx7nIADKClGpqnJLgY-11">
          <mxGeometry y="32" width="30" height="17" as="geometry" />
        </mxCell>
        <mxCell id="PcNx7nIADKClGpqnJLgY-29" value="" style="shape=partialRectangle;html=1;whiteSpace=wrap;connectable=0;overflow=hidden;fillColor=none;top=0;left=0;bottom=0;right=0;" vertex="1" parent="PcNx7nIADKClGpqnJLgY-28">
          <mxGeometry width="4" height="17" as="geometry" />
        </mxCell>
        <mxCell id="PcNx7nIADKClGpqnJLgY-30" value="" style="shape=partialRectangle;html=1;whiteSpace=wrap;connectable=0;overflow=hidden;fillColor=none;top=0;left=0;bottom=0;right=0;" vertex="1" parent="PcNx7nIADKClGpqnJLgY-28">
          <mxGeometry x="4" width="5" height="17" as="geometry" />
        </mxCell>
        <mxCell id="PcNx7nIADKClGpqnJLgY-31" value="" style="shape=partialRectangle;html=1;whiteSpace=wrap;connectable=0;overflow=hidden;fillColor=none;top=0;left=0;bottom=0;right=0;" vertex="1" parent="PcNx7nIADKClGpqnJLgY-28">
          <mxGeometry x="9" width="7" height="17" as="geometry" />
        </mxCell>
        <mxCell id="PcNx7nIADKClGpqnJLgY-32" value="" style="shape=partialRectangle;html=1;whiteSpace=wrap;connectable=0;overflow=hidden;fillColor=none;top=0;left=0;bottom=0;right=0;" vertex="1" parent="PcNx7nIADKClGpqnJLgY-28">
          <mxGeometry x="16" width="1" height="17" as="geometry" />
        </mxCell>
        <mxCell id="PcNx7nIADKClGpqnJLgY-33" value="" style="shape=partialRectangle;html=1;whiteSpace=wrap;connectable=0;overflow=hidden;fillColor=none;top=0;left=0;bottom=0;right=0;" vertex="1" parent="PcNx7nIADKClGpqnJLgY-28">
          <mxGeometry x="17" width="4" height="17" as="geometry" />
        </mxCell>
        <mxCell id="PcNx7nIADKClGpqnJLgY-34" value="" style="shape=partialRectangle;html=1;whiteSpace=wrap;connectable=0;overflow=hidden;fillColor=none;top=0;left=0;bottom=0;right=0;" vertex="1" parent="PcNx7nIADKClGpqnJLgY-28">
          <mxGeometry x="21" width="5" height="17" as="geometry" />
        </mxCell>
        <mxCell id="PcNx7nIADKClGpqnJLgY-35" value="" style="shape=partialRectangle;html=1;whiteSpace=wrap;connectable=0;overflow=hidden;fillColor=none;top=0;left=0;bottom=0;right=0;" vertex="1" parent="PcNx7nIADKClGpqnJLgY-28">
          <mxGeometry x="26" width="4" height="17" as="geometry" />
        </mxCell>
        <mxCell id="PcNx7nIADKClGpqnJLgY-36" value="" style="shape=partialRectangle;html=1;whiteSpace=wrap;collapsible=0;dropTarget=0;pointerEvents=0;fillColor=none;top=0;left=0;bottom=0;right=0;points=[[0,0.5],[1,0.5]];portConstraint=eastwest;" vertex="1" parent="PcNx7nIADKClGpqnJLgY-11">
          <mxGeometry y="49" width="30" height="16" as="geometry" />
        </mxCell>
        <mxCell id="PcNx7nIADKClGpqnJLgY-37" value="" style="shape=partialRectangle;html=1;whiteSpace=wrap;connectable=0;overflow=hidden;fillColor=none;top=0;left=0;bottom=0;right=0;" vertex="1" parent="PcNx7nIADKClGpqnJLgY-36">
          <mxGeometry width="4" height="16" as="geometry" />
        </mxCell>
        <mxCell id="PcNx7nIADKClGpqnJLgY-38" value="" style="shape=partialRectangle;html=1;whiteSpace=wrap;connectable=0;overflow=hidden;fillColor=none;top=0;left=0;bottom=0;right=0;" vertex="1" parent="PcNx7nIADKClGpqnJLgY-36">
          <mxGeometry x="4" width="5" height="16" as="geometry" />
        </mxCell>
        <mxCell id="PcNx7nIADKClGpqnJLgY-39" value="" style="shape=partialRectangle;html=1;whiteSpace=wrap;connectable=0;overflow=hidden;fillColor=none;top=0;left=0;bottom=0;right=0;" vertex="1" parent="PcNx7nIADKClGpqnJLgY-36">
          <mxGeometry x="9" width="7" height="16" as="geometry" />
        </mxCell>
        <mxCell id="PcNx7nIADKClGpqnJLgY-40" value="" style="shape=partialRectangle;html=1;whiteSpace=wrap;connectable=0;overflow=hidden;fillColor=none;top=0;left=0;bottom=0;right=0;" vertex="1" parent="PcNx7nIADKClGpqnJLgY-36">
          <mxGeometry x="16" width="1" height="16" as="geometry" />
        </mxCell>
        <mxCell id="PcNx7nIADKClGpqnJLgY-41" value="" style="shape=partialRectangle;html=1;whiteSpace=wrap;connectable=0;overflow=hidden;fillColor=none;top=0;left=0;bottom=0;right=0;" vertex="1" parent="PcNx7nIADKClGpqnJLgY-36">
          <mxGeometry x="17" width="4" height="16" as="geometry" />
        </mxCell>
        <mxCell id="PcNx7nIADKClGpqnJLgY-42" value="" style="shape=partialRectangle;html=1;whiteSpace=wrap;connectable=0;overflow=hidden;fillColor=none;top=0;left=0;bottom=0;right=0;" vertex="1" parent="PcNx7nIADKClGpqnJLgY-36">
          <mxGeometry x="21" width="5" height="16" as="geometry" />
        </mxCell>
        <mxCell id="PcNx7nIADKClGpqnJLgY-43" value="" style="shape=partialRectangle;html=1;whiteSpace=wrap;connectable=0;overflow=hidden;fillColor=none;top=0;left=0;bottom=0;right=0;" vertex="1" parent="PcNx7nIADKClGpqnJLgY-36">
          <mxGeometry x="26" width="4" height="16" as="geometry" />
        </mxCell>
        <mxCell id="PcNx7nIADKClGpqnJLgY-44" value="" style="shape=partialRectangle;html=1;whiteSpace=wrap;collapsible=0;dropTarget=0;pointerEvents=0;fillColor=none;top=0;left=0;bottom=0;right=0;points=[[0,0.5],[1,0.5]];portConstraint=eastwest;" vertex="1" parent="PcNx7nIADKClGpqnJLgY-11">
          <mxGeometry y="65" width="30" height="85" as="geometry" />
        </mxCell>
        <mxCell id="PcNx7nIADKClGpqnJLgY-45" value="" style="shape=partialRectangle;html=1;whiteSpace=wrap;connectable=0;overflow=hidden;fillColor=none;top=0;left=0;bottom=0;right=0;" vertex="1" parent="PcNx7nIADKClGpqnJLgY-44">
          <mxGeometry width="4" height="85" as="geometry" />
        </mxCell>
        <mxCell id="PcNx7nIADKClGpqnJLgY-46" value="" style="shape=partialRectangle;html=1;whiteSpace=wrap;connectable=0;overflow=hidden;fillColor=none;top=0;left=0;bottom=0;right=0;" vertex="1" parent="PcNx7nIADKClGpqnJLgY-44">
          <mxGeometry x="4" width="5" height="85" as="geometry" />
        </mxCell>
        <mxCell id="PcNx7nIADKClGpqnJLgY-47" value="" style="shape=partialRectangle;html=1;whiteSpace=wrap;connectable=0;overflow=hidden;fillColor=none;top=0;left=0;bottom=0;right=0;" vertex="1" parent="PcNx7nIADKClGpqnJLgY-44">
          <mxGeometry x="9" width="7" height="85" as="geometry" />
        </mxCell>
        <mxCell id="PcNx7nIADKClGpqnJLgY-48" value="" style="shape=partialRectangle;html=1;whiteSpace=wrap;connectable=0;overflow=hidden;fillColor=none;top=0;left=0;bottom=0;right=0;" vertex="1" parent="PcNx7nIADKClGpqnJLgY-44">
          <mxGeometry x="16" width="1" height="85" as="geometry" />
        </mxCell>
        <mxCell id="PcNx7nIADKClGpqnJLgY-49" value="" style="shape=partialRectangle;html=1;whiteSpace=wrap;connectable=0;overflow=hidden;fillColor=none;top=0;left=0;bottom=0;right=0;" vertex="1" parent="PcNx7nIADKClGpqnJLgY-44">
          <mxGeometry x="17" width="4" height="85" as="geometry" />
        </mxCell>
        <mxCell id="PcNx7nIADKClGpqnJLgY-50" value="" style="shape=partialRectangle;html=1;whiteSpace=wrap;connectable=0;overflow=hidden;fillColor=none;top=0;left=0;bottom=0;right=0;" vertex="1" parent="PcNx7nIADKClGpqnJLgY-44">
          <mxGeometry x="21" width="5" height="85" as="geometry" />
        </mxCell>
        <mxCell id="PcNx7nIADKClGpqnJLgY-51" value="" style="shape=partialRectangle;html=1;whiteSpace=wrap;connectable=0;overflow=hidden;fillColor=none;top=0;left=0;bottom=0;right=0;" vertex="1" parent="PcNx7nIADKClGpqnJLgY-44">
          <mxGeometry x="26" width="4" height="85" as="geometry" />
        </mxCell>
        <mxCell id="PcNx7nIADKClGpqnJLgY-52" value="" style="rounded=1;whiteSpace=wrap;html=1;strokeWidth=2;fillWeight=4;hachureGap=8;hachureAngle=45;sketch=1;fillColor=#D139E2;" vertex="1" parent="1">
          <mxGeometry x="20" y="230" width="120" height="60" as="geometry" />
        </mxCell>
        <mxCell id="PcNx7nIADKClGpqnJLgY-53" value="" style="verticalLabelPosition=bottom;verticalAlign=top;html=1;shape=mxgraph.basic.smiley;strokeWidth=4;fillColor=#D139E2;" vertex="1" parent="1">
          <mxGeometry x="230" y="210" width="100" height="100" as="geometry" />
        </mxCell>
        <mxCell id="PcNx7nIADKClGpqnJLgY-54" value="" style="endArrow=none;html=1;entryX=0;entryY=0.5;entryDx=0;entryDy=0;exitX=1;exitY=0.5;exitDx=0;exitDy=0;" edge="1" parent="1" source="PcNx7nIADKClGpqnJLgY-1" target="PcNx7nIADKClGpqnJLgY-2">
          <mxGeometry width="50" height="50" relative="1" as="geometry">
            <mxPoint x="180" y="150" as="sourcePoint" />
            <mxPoint x="390" y="130" as="targetPoint" />
          </mxGeometry>
        </mxCell>
        <mxCell id="PcNx7nIADKClGpqnJLgY-55" value="" style="shape=crossbar;whiteSpace=wrap;html=1;rounded=1;strokeWidth=4;fillColor=#D139E2;" vertex="1" parent="1">
          <mxGeometry x="140" y="260" width="120" height="20" as="geometry" />
        </mxCell>
      </root>
    </mxGraphModel>
  </diagram>
</mxfile>
